<?xml version="1.0" encoding="UTF-8"?>
<!DOCTYPE svg PUBLIC "-//W3C//DTD SVG 1.1//EN" "http://www.w3.org/Graphics/SVG/1.1/DTD/svg11.dtd">
<svg xmlns="http://www.w3.org/2000/svg" version="1.1" width="999px" height="999px" style="shape-rendering:geometricPrecision; text-rendering:geometricPrecision; image-rendering:optimizeQuality; fill-rule:evenodd; clip-rule:evenodd" xmlns:xlink="http://www.w3.org/1999/xlink">
<g><path style="opacity:0.965" fill="#9900ff" d="M 474.5,22.5 C 481.175,22.3337 487.842,22.5004 494.5,23C 494.957,23.414 495.291,23.914 495.5,24.5C 491.849,28.6516 488.016,32.6516 484,36.5C 475,50.5 466,64.5 457,78.5C 451.323,85.5183 444.489,91.0183 436.5,95C 429.976,97.4634 423.309,97.9634 416.5,96.5C 424.433,82.969 431.6,68.969 438,54.5C 445.742,38.5793 457.909,27.9126 474.5,22.5 Z"/></g>
<g><path style="opacity:0.959" fill="#9900ff" d="M 525.5,22.5 C 532.388,22.4812 539.054,23.6478 545.5,26C 541.333,29.5 537.167,33 533,36.5C 523.758,47.9862 514.758,59.6528 506,71.5C 496.239,84.1307 483.405,91.1307 467.5,92.5C 464.468,92.1936 461.468,91.6936 458.5,91C 469.372,75.4242 479.872,59.5909 490,43.5C 499.14,31.6894 510.973,24.6894 525.5,22.5 Z"/></g>
<g><path style="opacity:0.958" fill="#9900ff" d="M 435.5,25.5 C 439.273,25.2633 442.94,25.7633 446.5,27C 441.726,32.0513 437.56,37.5513 434,43.5C 426.702,60.098 418.369,76.098 409,91.5C 400.085,102.711 388.585,108.045 374.5,107.5C 381.685,91.445 388.185,75.1116 394,58.5C 401.91,39.7289 415.743,28.7289 435.5,25.5 Z"/></g>
<g><path style="opacity:0.962" fill="#9900ff" d="M 566.5,28.5 C 574.651,28.0089 582.651,28.8422 590.5,31C 592.002,31.5831 593.335,32.4164 594.5,33.5C 589.027,37.1395 583.694,40.9729 578.5,45C 566.134,59.0337 552.8,72.0337 538.5,84C 526.878,91.3948 514.544,93.0614 501.5,89C 511.84,77.8062 521.34,65.9728 530,53.5C 537.776,43.7137 547.276,36.2137 558.5,31C 561.379,30.454 564.046,29.6206 566.5,28.5 Z"/></g>
<g><path style="opacity:0.96" fill="#9900ff" d="M 387.5,34.5 C 390.85,34.335 394.183,34.5017 397.5,35C 394.667,39.1667 391.833,43.3333 389,47.5C 383.94,60.0128 379.273,72.6794 375,85.5C 370.923,98.2203 363.757,108.72 353.5,117C 347.638,121.016 341.305,122.849 334.5,122.5C 339.441,107.738 343.608,92.7383 347,77.5C 351.915,54.7599 365.415,40.4266 387.5,34.5 Z"/></g>
<g><path style="opacity:0.962" fill="#9900ff" d="M 611.5,38.5 C 623.067,37.3785 633.734,39.8785 643.5,46C 626.477,55.0189 611.144,66.3523 597.5,80C 592.004,83.9158 586.337,87.5825 580.5,91C 568.534,96.7221 556.534,96.8888 544.5,91.5C 558.292,78.208 571.959,64.708 585.5,51C 593.338,44.9128 602.005,40.7461 611.5,38.5 Z"/></g>
<g><path style="opacity:0.96" fill="#9900ff" d="M 345.5,47.5 C 346.873,47.3433 348.207,47.51 349.5,48C 347.206,52.088 345.039,56.2547 343,60.5C 338.198,76.7081 333.865,93.0415 330,109.5C 326.219,123.249 318.052,133.416 305.5,140C 302.568,141.145 299.568,141.978 296.5,142.5C 299.577,124.892 302.41,107.226 305,89.5C 309.653,66.6846 323.153,52.6846 345.5,47.5 Z"/></g>
<g><path style="opacity:0.96" fill="#9900ff" d="M 653.5,53.5 C 667.004,51.8729 679.004,55.2063 689.5,63.5C 672.088,70.7027 656.088,80.2027 641.5,92C 630.936,99.2437 619.269,103.41 606.5,104.5C 599.251,104.305 592.584,102.305 586.5,98.5C 599.934,88.5688 612.934,78.0688 625.5,67C 634.004,60.5801 643.337,56.0801 653.5,53.5 Z"/></g>
<g><path style="opacity:0.962" fill="#9900ff" d="M 300.5,65.5 C 301.552,65.3505 302.552,65.5172 303.5,66C 300.919,71.6645 298.753,77.4978 297,83.5C 294.591,97.1065 292.591,110.773 291,124.5C 289.365,138.771 283.198,150.604 272.5,160C 268.856,162.656 264.856,164.489 260.5,165.5C 261.809,148.863 262.642,132.196 263,115.5C 264.189,90.0415 276.689,73.3748 300.5,65.5 Z"/></g>
<g><path style="opacity:0.963" fill="#9900ff" d="M 694.5,72.5 C 710.043,70.7361 723.376,75.2361 734.5,86C 729.457,87.1775 724.457,88.5108 719.5,90C 705.851,96.4902 692.518,103.49 679.5,111C 665.671,117.897 651.338,119.231 636.5,115C 633.497,113.834 630.83,112.167 628.5,110C 643.438,100.726 658.104,91.0596 672.5,81C 679.613,77.2641 686.946,74.4308 694.5,72.5 Z"/></g>
<g><path style="opacity:0.96" fill="#9900ff" d="M 257.5,88.5 C 258.124,88.9169 258.457,89.5836 258.5,90.5C 255.564,98.5755 254.064,106.909 254,115.5C 253.667,126.5 253.333,137.5 253,148.5C 253,164.326 247.167,177.493 235.5,188C 232.995,189.753 230.329,191.253 227.5,192.5C 226.389,175.839 225.389,159.173 224.5,142.5C 222.53,116.216 233.53,98.2158 257.5,88.5 Z"/></g>
<g><path style="opacity:0.958" fill="#9900ff" d="M 738.5,95.5 C 753.746,95.2311 766.079,100.898 775.5,112.5C 756.665,116.167 738.665,122.334 721.5,131C 702.397,139.756 684.397,138.089 667.5,126C 683.26,118.286 698.927,110.286 714.5,102C 722.307,98.6141 730.307,96.4475 738.5,95.5 Z"/></g>
<g><path style="opacity:0.958" fill="#9900ff" d="M 214.5,116.5 C 215.675,116.281 216.675,116.614 217.5,117.5C 216.407,122.484 215.407,127.484 214.5,132.5C 216.508,151.763 217.341,171.097 217,190.5C 215.47,201.728 210.636,211.228 202.5,219C 200.473,220.879 198.14,222.046 195.5,222.5C 193.033,202.659 190.366,182.826 187.5,163C 187.202,141.861 196.202,126.361 214.5,116.5 Z"/></g>
<g><path style="opacity:0.958" fill="#9800ff" d="M 766.5,123.5 C 786.777,120.315 802.777,126.982 814.5,143.5C 809.198,144.329 803.864,144.829 798.5,145C 784.034,148.533 769.7,152.533 755.5,157C 739.304,161.735 724.304,159.402 710.5,150C 708.981,148.649 707.648,147.149 706.5,145.5C 720.677,140.496 734.677,134.996 748.5,129C 754.531,126.832 760.531,124.999 766.5,123.5 Z"/></g>
<g><path style="opacity:0.96" fill="#9900ff" d="M 177.5,147.5 C 178.329,154.989 178.829,162.656 179,170.5C 181.334,184.171 183.668,197.837 186,211.5C 188.95,229.906 183.283,244.906 169,256.5C 165.138,240.054 160.805,223.72 156,207.5C 149.257,182.211 156.424,162.211 177.5,147.5 Z"/></g>
<g><path style="opacity:0.961" fill="#9900ff" d="M 806.5,153.5 C 825.873,153.403 840.539,161.57 850.5,178C 831.256,178.262 812.256,180.596 793.5,185C 779.544,188.056 766.211,186.389 753.5,180C 749.038,176.781 745.038,173.114 741.5,169C 757.946,165.138 774.28,160.805 790.5,156C 795.972,155.133 801.306,154.3 806.5,153.5 Z"/></g>
<g><path style="opacity:0.959" fill="#9900ff" d="M 141.5,183.5 C 142.5,183.5 143.5,183.5 144.5,183.5C 144.334,188.844 144.501,194.177 145,199.5C 148.2,212.634 151.867,225.634 156,238.5C 160.13,251.558 160.13,264.558 156,277.5C 153.43,282.898 149.93,287.565 145.5,291.5C 139.012,274.518 132.512,257.518 126,240.5C 118.872,218 124.039,199 141.5,183.5 Z"/></g>
<g><path style="opacity:0.958" fill="#9900ff" d="M 828.5,187.5 C 846.835,185.775 862.335,191.441 875,204.5C 877,207.833 879,211.167 881,214.5C 881.749,215.635 881.583,216.635 880.5,217.5C 875.516,216.407 870.516,215.407 865.5,214.5C 850.202,215.617 834.869,216.617 819.5,217.5C 801.432,218.989 786.932,212.656 776,198.5C 775.517,197.552 775.351,196.552 775.5,195.5C 793.438,193.84 811.105,191.173 828.5,187.5 Z"/></g>
<g><path style="opacity:0.828" fill="#fe65ff" d="M 539.5,360.5 C 538.649,362.882 537.316,364.882 535.5,366.5C 522.088,361.753 512.088,353.087 505.5,340.5C 485.141,367.934 460.808,390.768 432.5,409C 458.721,387.28 482.387,363.113 503.5,336.5C 491.035,297.61 495.869,260.943 518,226.5C 522.11,219.368 528.11,215.035 536,213.5C 539.2,213.147 541.867,214.147 544,216.5C 547.652,223.525 549.486,231.025 549.5,239C 547.919,263.079 541.085,285.579 529,306.5C 522.819,316.205 516.652,325.872 510.5,335.5C 515.556,349.225 525.223,357.559 539.5,360.5 Z M 532.5,218.5 C 535.187,218.336 537.854,218.503 540.5,219C 541.701,219.903 542.535,221.069 543,222.5C 545.716,238.152 544.383,253.485 539,268.5C 532.523,291.457 521.856,312.124 507,330.5C 499.158,297.232 502.825,265.232 518,234.5C 521.307,227.697 526.14,222.364 532.5,218.5 Z"/></g>
<g><path style="opacity:0.958" fill="#9900ff" d="M 111.5,222.5 C 112.693,222.97 113.36,223.97 113.5,225.5C 114.101,230.211 114.935,234.878 116,239.5C 121.39,253.945 127.056,268.279 133,282.5C 139.33,299.834 136.997,315.834 126,330.5C 117.953,314.073 109.619,297.74 101,281.5C 92.8868,263.885 93.8868,246.885 104,230.5C 106.294,227.527 108.794,224.86 111.5,222.5 Z"/></g>
<g><path style="opacity:0.959" fill="#9900ff" d="M 841.5,224.5 C 850.839,224.334 860.173,224.5 869.5,225C 889.792,227.63 903.126,238.63 909.5,258C 904.398,257.811 899.398,256.811 894.5,255C 876.825,254.086 859.158,253.086 841.5,252C 824.984,250.295 812.984,242.129 805.5,227.5C 817.681,226.832 829.681,225.832 841.5,224.5 Z"/></g>
<g><path style="opacity:0.972" fill="#cc33ff" d="M 644.5,257.5 C 643.659,259.379 643.325,261.379 643.5,263.5C 639.111,275.943 634.444,288.277 629.5,300.5C 628.662,300.842 628.328,301.508 628.5,302.5C 624.189,310.102 620.856,318.102 618.5,326.5C 598.223,378.056 578.223,429.722 558.5,481.5C 556.408,484.088 555.075,487.088 554.5,490.5C 552.68,496.79 550.346,502.79 547.5,508.5C 544.23,497.225 536.897,490.558 525.5,488.5C 556.696,416.111 590.029,344.778 625.5,274.5C 629.037,268.091 632.037,261.425 634.5,254.5C 634.426,252.261 633.259,251.261 631,251.5C 628.679,251.909 626.513,252.743 624.5,254C 617.968,260.198 611.801,266.698 606,273.5C 587.024,300.439 570.857,329.105 557.5,359.5C 555.076,362.008 553.41,365.008 552.5,368.5C 531.562,409.376 510.896,450.376 490.5,491.5C 490.5,491.833 490.5,492.167 490.5,492.5C 482.162,488.653 473.495,487.653 464.5,489.5C 487.902,448.364 511.569,407.364 535.5,366.5C 537.316,364.882 538.649,362.882 539.5,360.5C 554.983,333.188 571.483,306.522 589,280.5C 598.36,266.469 609.194,253.636 621.5,242C 639.52,231.68 647.186,236.846 644.5,257.5 Z M 625.5,274.5 C 621.142,279.373 617.309,284.706 614,290.5C 604.068,309.421 593.734,328.088 583,346.5C 575.113,352.027 566.613,356.36 557.5,359.5C 570.857,329.105 587.024,300.439 606,273.5C 611.801,266.698 617.968,260.198 624.5,254C 626.513,252.743 628.679,251.909 631,251.5C 633.259,251.261 634.426,252.261 634.5,254.5C 632.037,261.425 629.037,268.091 625.5,274.5 Z M 490.5,491.5 C 510.896,450.376 531.562,409.376 552.5,368.5C 556.163,367.734 559.829,366.9 563.5,366C 568.308,363.918 572.975,361.918 577.5,360C 557.498,400.838 539.832,442.671 524.5,485.5C 513.161,487.501 501.828,489.501 490.5,491.5 Z"/></g>
<g><path style="opacity:0.84" fill="#fe65ff" d="M 644.5,257.5 C 647.365,257.055 649.865,257.722 652,259.5C 652.467,263.975 651.801,268.309 650,272.5C 642.262,292.336 631.762,310.336 618.5,326.5C 620.856,318.102 624.189,310.102 628.5,302.5C 629.338,302.158 629.672,301.492 629.5,300.5C 637.113,290.442 642.78,279.275 646.5,267C 646.722,264.725 645.722,263.559 643.5,263.5C 643.325,261.379 643.659,259.379 644.5,257.5 Z"/></g>
<g><path style="opacity:0.928" fill="#fe65ff" d="M 582.5,611.5 C 581.883,611.389 581.383,611.056 581,610.5C 580.501,615.489 580.334,620.489 580.5,625.5C 577.436,641.883 576.103,658.549 576.5,675.5C 570.516,677.388 565.516,676.055 561.5,671.5C 560.641,626.319 567.474,582.319 582,539.5C 588.148,521.044 594.981,502.877 602.5,485C 586.353,485.473 570.353,487.306 554.5,490.5C 555.075,487.088 556.408,484.088 558.5,481.5C 574.456,480.056 590.289,478.056 606,475.5C 620.213,446.407 633.88,417.074 647,387.5C 660.638,356.867 677.304,328.2 697,301.5C 711.223,283.605 729.056,270.772 750.5,263C 781.962,254.317 798.962,266.15 801.5,298.5C 800.109,316.506 794.609,333.173 785,348.5C 757.726,392.777 722.559,429.61 679.5,459C 661.079,470.807 641.246,479.307 620,484.5C 603.929,525.786 591.429,568.12 582.5,611.5 Z M 624.5,474.5 C 643.7,423.719 667.2,375.052 695,328.5C 705.905,310.915 719.072,295.082 734.5,281C 746.756,270.026 761.089,265.026 777.5,266C 788.289,269.723 794.789,277.223 797,288.5C 797.973,297.299 797.306,305.965 795,314.5C 786.489,337.871 774.156,358.871 758,377.5C 745.201,391.968 732.034,406.134 718.5,420C 697.984,439.507 674.984,455.507 649.5,468C 641.448,471.296 633.115,473.463 624.5,474.5 Z"/></g>
<g><path style="opacity:0.961" fill="#9900ff" d="M 832.5,260.5 C 849.47,261.827 866.47,262.66 883.5,263C 909.508,264.319 925.842,277.486 932.5,302.5C 932.333,302.833 932.167,303.167 932,303.5C 926.335,300.919 920.502,298.753 914.5,297C 900.893,294.591 887.227,292.591 873.5,291C 859.197,289.433 847.364,283.267 838,272.5C 835.344,268.856 833.511,264.856 832.5,260.5 Z"/></g>
<g><path style="opacity:0.962" fill="#9900ff" d="M 85.5,263.5 C 87.1314,268.336 88.6314,273.336 90,278.5C 97.4112,293.656 105.078,308.656 113,323.5C 118.515,336.743 118.848,350.076 114,363.5C 113.163,365.844 111.829,367.844 110,369.5C 101.726,356.228 93.0589,343.228 84,330.5C 74.1728,316.194 70.8395,300.527 74,283.5C 76.3977,275.953 80.231,269.286 85.5,263.5 Z"/></g>
<g><path style="opacity:0.896" fill="#fe65ff" d="M 625.5,274.5 C 590.029,344.778 556.696,416.111 525.5,488.5C 517.339,487.705 510.006,489.705 503.5,494.5C 500.454,495.062 497.454,495.729 494.5,496.5C 492.833,495.5 491.5,494.167 490.5,492.5C 490.5,492.167 490.5,491.833 490.5,491.5C 501.828,489.501 513.161,487.501 524.5,485.5C 539.832,442.671 557.498,400.838 577.5,360C 572.975,361.918 568.308,363.918 563.5,366C 559.829,366.9 556.163,367.734 552.5,368.5C 553.41,365.008 555.076,362.008 557.5,359.5C 566.613,356.36 575.113,352.027 583,346.5C 593.734,328.088 604.068,309.421 614,290.5C 617.309,284.706 621.142,279.373 625.5,274.5 Z"/></g>
<g><path style="opacity:0.959" fill="#9900ff" d="M 855.5,296.5 C 873.108,299.577 890.774,302.41 908.5,305C 930.851,309.354 944.685,322.521 950,344.5C 950.798,346.259 950.631,347.926 949.5,349.5C 945.66,347.079 941.66,344.912 937.5,343C 923.668,338.709 909.668,335.042 895.5,332C 878.783,328.911 866.283,320.078 858,305.5C 856.855,302.568 856.022,299.568 855.5,296.5 Z"/></g>
<g><path style="opacity:0.948" fill="#cb33ff" d="M 416.5,451.5 C 414.735,454.123 414.068,457.123 414.5,460.5C 410.042,478.873 404.376,496.873 397.5,514.5C 395.659,516.849 394.326,519.515 393.5,522.5C 382.646,548.554 368.979,572.888 352.5,595.5C 350.457,596.579 349.124,598.246 348.5,600.5C 330.884,624.783 310.218,646.116 286.5,664.5C 284.596,664.738 283.262,665.738 282.5,667.5C 249.592,688.483 214.592,693.483 177.5,682.5C 199.648,742.052 238.315,755.885 293.5,724C 299.59,720.301 305.257,716.134 310.5,711.5C 312.404,711.262 313.738,710.262 314.5,708.5C 335.642,689.193 354.475,667.859 371,644.5C 376.084,636.932 380.917,629.265 385.5,621.5C 386.167,621.5 386.5,621.167 386.5,620.5C 388.89,618.733 390.557,616.4 391.5,613.5C 399.822,599.528 408.155,585.528 416.5,571.5C 405.515,570.668 394.515,570.168 383.5,570C 381.007,566.692 380.841,563.192 383,559.5C 396.425,558.676 409.925,558.176 423.5,558C 424.305,556.887 424.972,555.721 425.5,554.5C 426.816,576.039 426.816,597.706 425.5,619.5C 412.438,642.736 397.938,665.07 382,686.5C 370.334,699.999 358.167,712.999 345.5,725.5C 343.251,726.08 341.585,727.413 340.5,729.5C 324.189,744.163 305.523,754.997 284.5,762C 242.565,774.674 210.399,762.507 188,725.5C 179.789,710.079 172.956,694.079 167.5,677.5C 143.246,659.365 127.746,635.365 121,605.5C 110.484,550.477 116.151,497.144 138,445.5C 151.845,413.656 173.012,387.823 201.5,368C 221.001,357.611 241.668,350.611 263.5,347C 279.578,331.932 297.578,319.599 317.5,310C 341.388,300.386 364.722,301.386 387.5,313C 401.658,323.168 411.158,336.668 416,353.5C 421.095,372.856 422.762,392.523 421,412.5C 420.074,425.575 418.574,438.575 416.5,451.5 Z M 409.5,444.5 C 386.967,427.3 363.634,426.133 339.5,441C 309.011,464.423 288.845,494.923 279,532.5C 269.211,573.449 269.044,614.449 278.5,655.5C 245.287,679.214 210.12,682.547 173,665.5C 161.459,559.658 186.793,463.658 249,377.5C 252,373.833 255,370.167 258,366.5C 260.382,363.781 263.049,361.447 266,359.5C 284.482,360.829 301.982,365.662 318.5,374C 322.344,376.422 326.01,379.089 329.5,382C 333.7,384.719 336.033,383.719 336.5,379C 336.385,376.268 335.552,373.768 334,371.5C 325.34,363.751 315.507,357.918 304.5,354C 296.211,351.511 287.878,349.178 279.5,347C 292.35,335.736 306.683,326.736 322.5,320C 365.142,304.08 394.308,317.246 410,359.5C 414.717,379.63 415.717,399.964 413,420.5C 411.939,428.528 410.773,436.528 409.5,444.5 Z M 242.5,363.5 C 243.873,363.343 245.207,363.51 246.5,364C 208.705,416.451 183.538,474.618 171,538.5C 162.621,578.86 160.288,619.527 164,660.5C 141.865,641.577 128.531,617.577 124,588.5C 117.234,526.233 130.901,468.899 165,416.5C 184.712,389.739 210.545,372.072 242.5,363.5 Z M 407.5,451.5 C 402.913,474.926 395.913,497.593 386.5,519.5C 356.721,533.311 343.388,556.644 346.5,589.5C 333.518,606.992 318.852,623.159 302.5,638C 296.216,643.464 289.55,648.297 282.5,652.5C 271.882,608.398 273.382,564.732 287,521.5C 297.139,490.387 315.306,465.22 341.5,446C 358.777,434.984 376.777,433.65 395.5,442C 399.975,444.65 403.975,447.817 407.5,451.5 Z M 381.5,528.5 C 373.193,548.099 362.86,566.433 350.5,583.5C 349.214,558.387 359.547,540.054 381.5,528.5 Z M 348.5,600.5 C 356.124,615.486 368.457,622.486 385.5,621.5C 380.917,629.265 376.084,636.932 371,644.5C 354.475,667.859 335.642,689.193 314.5,708.5C 301.646,696.137 292.313,681.471 286.5,664.5C 310.218,646.116 330.884,624.783 348.5,600.5 Z M 282.5,667.5 C 288.812,684.132 298.145,698.799 310.5,711.5C 305.257,716.134 299.59,720.301 293.5,724C 238.315,755.885 199.648,742.052 177.5,682.5C 214.592,693.483 249.592,688.483 282.5,667.5 Z"/></g>
<g><path style="opacity:0.96" fill="#9900ff" d="M 62.5,308.5 C 70.9144,326.637 81.4144,343.637 94,359.5C 100.2,368.933 103.7,379.266 104.5,390.5C 104.201,398.036 102.201,405.036 98.5,411.5C 94.8605,406.027 91.0271,400.694 87,395.5C 74.6916,383.864 64.6916,370.53 57,355.5C 50.947,338.841 52.7803,323.174 62.5,308.5 Z"/></g>
<g><path style="opacity:0.959" fill="#9900ff" d="M 874.5,334.5 C 892.005,339.794 909.672,344.627 927.5,349C 946.681,355.177 958.515,368.01 963,387.5C 963.667,390.833 963.667,394.167 963,397.5C 958.833,394.667 954.667,391.833 950.5,389C 936.987,383.606 923.32,378.606 909.5,374C 895.959,369.16 885.459,360.66 878,348.5C 876.203,343.977 875.036,339.31 874.5,334.5 Z"/></g>
<g><path style="opacity:0.96" fill="#9900ff" d="M 45.5,354.5 C 54.8281,371.346 66.3281,386.68 80,400.5C 88.8713,411.078 94.0379,423.244 95.5,437C 95.3713,442.815 94.0379,448.315 91.5,453.5C 78.208,439.708 64.708,426.041 51,412.5C 36.6313,394.332 34.798,374.999 45.5,354.5 Z"/></g>
<g><path style="opacity:0.958" fill="#9900ff" d="M 889.5,374.5 C 905.946,381.484 922.612,387.984 939.5,394C 960.087,402.524 971.087,417.857 972.5,440C 972.369,442.253 971.869,444.419 971,446.5C 965.949,441.726 960.449,437.56 954.5,434C 937.406,426.621 921.073,417.955 905.5,408C 895.197,399.227 889.864,388.061 889.5,374.5 Z"/></g>
<g><path style="opacity:0.963" fill="#9900ff" d="M 32.5,403.5 C 36.8685,408.514 41.0352,413.847 45,419.5C 56.9709,430.47 68.6376,441.804 80,453.5C 90.6836,466.252 93.6836,480.586 89,496.5C 74.7754,484.308 60.2754,472.474 45.5,461C 28.4669,444.701 24.1336,425.535 32.5,403.5 Z"/></g>
<g><path style="opacity:0.965" fill="#9900ff" d="M 900.5,416.5 C 916.957,425.229 933.624,433.729 950.5,442C 971.091,454.681 978.924,472.847 974,496.5C 969.833,492.333 965.667,488.167 961.5,484C 948.002,475.084 934.336,466.417 920.5,458C 906.194,447.887 899.527,434.053 900.5,416.5 Z"/></g>
<g><path style="opacity:0.832" fill="#fe65ff" d="M 409.5,444.5 C 409.829,447.228 409.163,449.562 407.5,451.5C 403.975,447.817 399.975,444.65 395.5,442C 376.777,433.65 358.777,434.984 341.5,446C 315.306,465.22 297.139,490.387 287,521.5C 273.382,564.732 271.882,608.398 282.5,652.5C 281.738,654.262 280.404,655.262 278.5,655.5C 269.044,614.449 269.211,573.449 279,532.5C 288.845,494.923 309.011,464.423 339.5,441C 363.634,426.133 386.967,427.3 409.5,444.5 Z"/></g>
<g><path style="opacity:0.958" fill="#9900ff" d="M 25.5,452.5 C 37.717,465.875 51.3836,477.708 66.5,488C 78.1899,496.229 86.3565,507.062 91,520.5C 92.9187,526.841 92.9187,533.175 91,539.5C 76.7704,529.607 62.2704,520.107 47.5,511C 32.734,500.797 24.4007,486.797 22.5,469C 23.0176,463.392 24.0176,457.892 25.5,452.5 Z"/></g>
<g><path style="opacity:0.908" fill="#fe65ff" d="M 416.5,451.5 C 427.168,462.491 434.502,475.491 438.5,490.5C 434.985,489.081 431.319,488.414 427.5,488.5C 425.29,478.086 420.957,468.752 414.5,460.5C 414.068,457.123 414.735,454.123 416.5,451.5 Z"/></g>
<g><path style="opacity:0.958" fill="#9900ff" d="M 906.5,458.5 C 920.968,468.239 935.635,477.739 950.5,487C 963.939,496.097 972.106,508.597 975,524.5C 975.628,531.73 974.628,538.73 972,545.5C 960.083,531.92 946.583,520.087 931.5,510C 919.81,501.771 911.643,490.938 907,477.5C 905.252,471.196 905.086,464.862 906.5,458.5 Z"/></g>
<g><path style="opacity:0.97" fill="#3465ff" d="M 427.5,488.5 C 431.319,488.414 434.985,489.081 438.5,490.5C 444.031,492.036 447.031,495.703 447.5,501.5C 448.741,507.862 449.741,507.529 450.5,500.5C 452.856,493.979 457.522,490.312 464.5,489.5C 473.495,487.653 482.162,488.653 490.5,492.5C 491.5,494.167 492.833,495.5 494.5,496.5C 495.653,498.807 496.82,501.14 498,503.5C 498.837,499.843 500.67,496.843 503.5,494.5C 510.006,489.705 517.339,487.705 525.5,488.5C 536.897,490.558 544.23,497.225 547.5,508.5C 548.157,554.294 548.823,599.961 549.5,645.5C 549.251,649.458 549.918,653.124 551.5,656.5C 553.128,661.09 555.295,665.423 558,669.5C 558.816,670.823 559.983,671.489 561.5,671.5C 565.516,676.055 570.516,677.388 576.5,675.5C 590.351,672.476 594.851,664.143 590,650.5C 587,652.5 584,654.5 581,656.5C 580.5,646.172 580.334,635.839 580.5,625.5C 580.334,620.489 580.501,615.489 581,610.5C 581.383,611.056 581.883,611.389 582.5,611.5C 589.952,621.458 597.619,631.291 605.5,641C 602.922,643.207 600.089,645.04 597,646.5C 599.741,656.832 598.741,666.832 594,676.5C 589.801,682.845 583.968,686.512 576.5,687.5C 571.833,687.5 567.167,687.5 562.5,687.5C 554.349,686.966 547.016,684.3 540.5,679.5C 540.631,678.761 540.464,678.094 540,677.5C 537.966,676.279 536.133,674.945 534.5,673.5C 530.005,666.498 527.171,658.831 526,650.5C 524.605,625.86 524.105,601.193 524.5,576.5C 525.622,555.191 525.788,533.857 525,512.5C 524.744,507.946 522.578,504.946 518.5,503.5C 509.81,499.785 503.31,502.119 499,510.5C 498.5,524.496 498.333,538.496 498.5,552.5C 497.524,581.468 497.191,610.468 497.5,639.5C 490.167,639.5 482.833,639.5 475.5,639.5C 475.5,637.5 475.5,635.5 475.5,633.5C 475.5,629.5 475.5,625.5 475.5,621.5C 475.5,604.5 475.5,587.5 475.5,570.5C 475.5,566.5 475.5,562.5 475.5,558.5C 475.5,546.833 475.5,535.167 475.5,523.5C 476.954,515.539 474.954,508.706 469.5,503C 465.594,501.566 461.594,501.233 457.5,502C 455.416,502.697 453.749,503.864 452.5,505.5C 450.94,507.954 449.94,510.62 449.5,513.5C 448.185,534.294 448.185,554.961 449.5,575.5C 449.5,596.833 449.5,618.167 449.5,639.5C 441.5,639.5 433.5,639.5 425.5,639.5C 425.5,632.833 425.5,626.167 425.5,619.5C 426.816,597.706 426.816,576.039 425.5,554.5C 425.5,540.833 425.5,527.167 425.5,513.5C 425.741,511.102 425.074,509.102 423.5,507.5C 420.869,502.351 416.869,500.851 411.5,503C 408.894,504.938 407.061,507.438 406,510.5C 406.524,496.808 413.691,489.475 427.5,488.5 Z M 503.5,494.5 C 500.67,496.843 498.837,499.843 498,503.5C 496.82,501.14 495.653,498.807 494.5,496.5C 497.454,495.729 500.454,495.062 503.5,494.5 Z M 518.5,503.5 C 512.204,520.07 505.538,536.403 498.5,552.5C 498.333,538.496 498.5,524.496 499,510.5C 503.31,502.119 509.81,499.785 518.5,503.5 Z M 452.5,505.5 C 453.239,505.369 453.906,505.536 454.5,506C 452.686,508.479 451.019,510.979 449.5,513.5C 449.94,510.62 450.94,507.954 452.5,505.5 Z M 475.5,523.5 C 475.5,535.167 475.5,546.833 475.5,558.5C 469.491,558.666 463.491,558.499 457.5,558C 463.402,546.36 469.402,534.86 475.5,523.5 Z M 580.5,625.5 C 580.334,635.839 580.5,646.172 581,656.5C 584,654.5 587,652.5 590,650.5C 594.851,664.143 590.351,672.476 576.5,675.5C 576.103,658.549 577.436,641.883 580.5,625.5 Z"/></g>
<g><path style="opacity:1" fill="#cb66ff" d="M 450.5,500.5 C 449.741,507.529 448.741,507.862 447.5,501.5C 448.609,501.443 449.609,501.11 450.5,500.5 Z"/></g>
<g><path style="opacity:0.987" fill="#ca33ff" d="M 475.5,523.5 C 469.402,534.86 463.402,546.36 457.5,558C 463.491,558.499 469.491,558.666 475.5,558.5C 475.5,562.5 475.5,566.5 475.5,570.5C 467.472,570.169 459.472,570.502 451.5,571.5C 450.37,572.622 449.703,573.956 449.5,575.5C 448.185,554.961 448.185,534.294 449.5,513.5C 451.019,510.979 452.686,508.479 454.5,506C 453.906,505.536 453.239,505.369 452.5,505.5C 453.749,503.864 455.416,502.697 457.5,502C 461.594,501.233 465.594,501.566 469.5,503C 474.954,508.706 476.954,515.539 475.5,523.5 Z"/></g>
<g><path style="opacity:0.963" fill="#9900ff" d="M 908.5,501.5 C 922.953,513.565 937.62,525.398 952.5,537C 965.756,549.347 971.256,564.513 969,582.5C 968.409,586.882 966.909,590.882 964.5,594.5C 960.893,589.051 957.059,583.717 953,578.5C 941.029,567.53 929.362,556.196 918,544.5C 907.492,531.791 904.325,517.458 908.5,501.5 Z"/></g>
<g><path style="opacity:0.965" fill="#9900ff" d="M 23.5,502.5 C 28.2391,505.731 32.5724,509.564 36.5,514C 49.9976,522.916 63.6643,531.583 77.5,540C 89.6766,548.512 96.3433,560.178 97.5,575C 97.1667,577.167 96.8333,579.333 96.5,581.5C 80.4813,572.49 64.1479,563.99 47.5,556C 27.3679,543.572 19.3679,525.738 23.5,502.5 Z"/></g>
<g><path style="opacity:0.971" fill="#ca33ff" d="M 518.5,503.5 C 522.578,504.946 524.744,507.946 525,512.5C 525.788,533.857 525.622,555.191 524.5,576.5C 508.591,619.734 494.757,663.734 483,708.5C 481.05,716.416 479.55,724.416 478.5,732.5C 478.811,736.559 479.811,740.393 481.5,744C 483.971,744.706 486.305,744.373 488.5,743C 498.865,732.64 507.699,721.14 515,708.5C 522.031,697.102 528.531,685.435 534.5,673.5C 536.133,674.945 537.966,676.279 540,677.5C 540.464,678.094 540.631,678.761 540.5,679.5C 525.856,708.632 507.856,735.465 486.5,760C 478.671,767.327 471.171,767.161 464,759.5C 461.73,754.356 460.063,749.022 459,743.5C 457.829,718.871 459.996,694.538 465.5,670.5C 468.383,657.96 471.717,645.627 475.5,633.5C 475.5,635.5 475.5,637.5 475.5,639.5C 482.833,639.5 490.167,639.5 497.5,639.5C 497.191,610.468 497.524,581.468 498.5,552.5C 505.538,536.403 512.204,520.07 518.5,503.5 Z"/></g>
<g><path style="opacity:0.884" fill="#fe65ff" d="M 423.5,507.5 C 425.074,509.102 425.741,511.102 425.5,513.5C 414.744,516.189 404.078,519.189 393.5,522.5C 394.326,519.515 395.659,516.849 397.5,514.5C 405.929,511.358 414.596,509.025 423.5,507.5 Z"/></g>
<g><path style="opacity:0.808" fill="#fe65ff" d="M 386.5,519.5 C 385.694,522.446 384.361,525.112 382.5,527.5C 381.833,527.5 381.5,527.833 381.5,528.5C 359.547,540.054 349.214,558.387 350.5,583.5C 350.155,586.198 348.822,588.198 346.5,589.5C 343.388,556.644 356.721,533.311 386.5,519.5 Z"/></g>
<g><path style="opacity:0.851" fill="#ff65ff" d="M 562.5,687.5 C 567.167,687.5 571.833,687.5 576.5,687.5C 577.035,701.307 580.535,714.307 587,726.5C 596.128,737.571 607.294,740.071 620.5,734C 637.667,723.5 651.5,709.667 662,692.5C 682.445,658.729 693.278,622.063 694.5,582.5C 694.335,572.169 691.835,562.503 687,553.5C 679.088,543.893 669.921,542.393 659.5,549C 649.436,557.928 641.936,568.761 637,581.5C 624.532,615.442 619.532,650.442 622,686.5C 616.83,648.347 621.497,611.347 636,575.5C 641.029,562.244 648.862,551.078 659.5,542C 674.441,535.385 685.275,539.551 692,554.5C 702.785,608.574 692.785,658.574 662,704.5C 652.417,717.418 640.917,728.252 627.5,737C 597.249,750.243 577.083,741.077 567,709.5C 565.049,702.246 563.549,694.913 562.5,687.5 Z"/></g>
<g><path style="opacity:0.96" fill="#9900ff" d="M 905.5,544.5 C 919.391,557.889 933.224,571.556 947,585.5C 961.543,603.779 963.21,623.113 952,643.5C 949.667,638.833 947.333,634.167 945,629.5C 936.376,618.54 927.376,607.874 918,597.5C 909.129,586.922 903.962,574.756 902.5,561C 902.925,555.378 903.925,549.878 905.5,544.5 Z"/></g>
<g><path style="opacity:0.958" fill="#9900ff" d="M 26.5,551.5 C 31.7816,556.146 37.4482,560.312 43.5,564C 60.5941,571.379 76.9274,580.045 92.5,590C 102.96,598.752 108.127,609.919 108,623.5C 91.7543,616.417 75.2543,609.917 58.5,604C 39.7402,596.254 28.9069,582.421 26,562.5C 25.4213,558.797 25.588,555.131 26.5,551.5 Z"/></g>
<g><path style="opacity:0.96" fill="#9900ff" d="M 898.5,586.5 C 907.665,598.518 917.498,610.184 928,621.5C 935.696,630.557 941.029,640.89 944,652.5C 946.287,666.354 943.121,678.687 934.5,689.5C 931.96,683.051 929.127,676.718 926,670.5C 918.667,659.833 911.333,649.167 904,638.5C 897.8,629.067 894.3,618.734 893.5,607.5C 894.072,600.212 895.739,593.212 898.5,586.5 Z"/></g>
<g><path style="opacity:0.831" fill="#fe65ff" d="M 352.5,595.5 C 360.004,613.756 373.004,619.756 391.5,613.5C 390.557,616.4 388.89,618.733 386.5,620.5C 385.833,620.5 385.5,620.833 385.5,621.5C 368.457,622.486 356.124,615.486 348.5,600.5C 349.124,598.246 350.457,596.579 352.5,595.5 Z"/></g>
<g><path style="opacity:0.958" fill="#9900ff" d="M 34.5,600.5 C 38.9507,603.111 43.2841,605.944 47.5,609C 61.0132,614.394 74.6799,619.394 88.5,624C 102.041,628.84 112.541,637.34 120,649.5C 122.15,654.065 122.984,658.731 122.5,663.5C 105.366,658.049 88.0326,653.216 70.5,649C 46.7532,641.435 34.7532,625.269 34.5,600.5 Z"/></g>
<g><path style="opacity:0.921" fill="#fe65ff" d="M 475.5,621.5 C 475.5,625.5 475.5,629.5 475.5,633.5C 471.717,645.627 468.383,657.96 465.5,670.5C 452.443,689.059 436.776,705.226 418.5,719C 394.262,735.538 368.262,739.038 340.5,729.5C 341.585,727.413 343.251,726.08 345.5,725.5C 370.122,732.209 392.456,727.709 412.5,712C 431.744,695.429 447.244,675.929 459,653.5C 464.274,642.615 469.774,631.949 475.5,621.5 Z"/></g>
<g><path style="opacity:0.864" fill="#cb32ff" d="M 551.5,656.5 C 549.918,653.124 549.251,649.458 549.5,645.5C 552.975,639.897 556.475,634.231 560,628.5C 560.991,629.43 561.491,630.596 561.5,632C 559.365,640.755 556.031,648.922 551.5,656.5 Z"/></g>
<g><path style="opacity:0.961" fill="#9900ff" d="M 887.5,628.5 C 896.079,641.596 904.913,654.596 914,667.5C 923.827,681.806 927.161,697.473 924,714.5C 921.655,722.174 917.655,728.841 912,734.5C 910.822,729.457 909.489,724.457 908,719.5C 900.589,704.344 892.922,689.344 885,674.5C 880.835,664.546 879.502,654.213 881,643.5C 882.092,637.987 884.259,632.987 887.5,628.5 Z"/></g>
<g><path style="opacity:0.958" fill="#9900ff" d="M 47.5,648.5 C 51.7802,650.64 56.1136,652.807 60.5,655C 74.3324,659.291 88.3324,662.958 102.5,666C 119.217,669.089 131.717,677.922 140,692.5C 141.145,695.432 141.978,698.432 142.5,701.5C 124.895,698.413 107.229,695.58 89.5,693C 64.9477,687.952 50.9477,673.119 47.5,648.5 Z"/></g>
<g><path style="opacity:0.838" fill="#fe65ff" d="M 286.5,664.5 C 292.313,681.471 301.646,696.137 314.5,708.5C 313.738,710.262 312.404,711.262 310.5,711.5C 298.145,698.799 288.812,684.132 282.5,667.5C 283.262,665.738 284.596,664.738 286.5,664.5 Z"/></g>
<g><path style="opacity:0.958" fill="#9900ff" d="M 871.5,667.5 C 879.94,683.709 888.44,700.043 897,716.5C 905.962,736.704 903.628,755.371 890,772.5C 888.758,773.872 887.258,774.872 885.5,775.5C 881.831,756.662 875.665,738.662 867,721.5C 858.44,702.503 859.94,684.503 871.5,667.5 Z"/></g>
<g><path style="opacity:0.961" fill="#9900ff" d="M 65.5,694.5 C 71.3682,696.957 77.3682,699.123 83.5,701C 97.1065,703.409 110.773,705.409 124.5,707C 138.803,708.567 150.636,714.733 160,725.5C 162.656,729.144 164.489,733.144 165.5,737.5C 148.863,736.191 132.196,735.358 115.5,735C 88.5091,734.03 71.8424,720.53 65.5,694.5 Z"/></g>
<g><path style="opacity:0.959" fill="#9900ff" d="M 852.5,705.5 C 858.653,722.835 865.153,740.168 872,757.5C 879.204,779.862 874.037,798.695 856.5,814C 855.552,814.483 854.552,814.649 853.5,814.5C 853.666,809.156 853.499,803.823 853,798.5C 849.8,785.366 846.133,772.366 842,759.5C 837.87,746.442 837.87,733.442 842,720.5C 844.941,715.067 848.441,710.067 852.5,705.5 Z"/></g>
<g><path style="opacity:0.96" fill="#9900ff" d="M 88.5,740.5 C 93.4544,740.135 98.4544,740.969 103.5,743C 118.481,744.062 133.481,744.729 148.5,745C 164.248,745.241 177.415,751.074 188,762.5C 189.753,765.005 191.253,767.671 192.5,770.5C 176.005,771.583 159.505,772.583 143,773.5C 116.452,775.697 98.2852,764.697 88.5,740.5 Z"/></g>
<g><path style="opacity:0.96" fill="#9900ff" d="M 828.5,741.5 C 832.814,757.743 837.314,774.076 842,790.5C 848.853,815.959 841.52,835.959 820,850.5C 819.667,842.833 819.333,835.167 819,827.5C 816.558,813.848 814.225,800.182 812,786.5C 809.145,768.248 814.645,753.248 828.5,741.5 Z"/></g>
<g><path style="opacity:0.958" fill="#9900ff" d="M 799.5,775.5 C 800.5,775.5 801.5,775.5 802.5,775.5C 804.946,795.512 807.613,815.512 810.5,835.5C 810.535,856.924 801.035,872.257 782,881.5C 781.5,881.167 781,880.833 780.5,880.5C 781.499,875.182 782.499,869.848 783.5,864.5C 781.429,845.555 780.596,826.555 781,807.5C 782.801,794.222 788.968,783.555 799.5,775.5 Z"/></g>
<g><path style="opacity:0.958" fill="#9900ff" d="M 116.5,780.5 C 121.731,781.27 126.898,782.27 132,783.5C 147.43,782.312 162.93,781.312 178.5,780.5C 196.568,779.011 211.068,785.344 222,799.5C 222.483,800.448 222.649,801.448 222.5,802.5C 218.818,802.335 215.152,802.501 211.5,803C 197.217,805.658 182.884,807.992 168.5,810C 150.516,812.008 135.349,806.508 123,793.5C 119.762,789.691 117.596,785.358 116.5,780.5 Z"/></g>
<g><path style="opacity:0.96" fill="#9900ff" d="M 769.5,805.5 C 771.335,817.133 772.501,829.133 773,841.5C 773.856,852.877 773.522,864.21 772,875.5C 767.502,892.664 756.835,903.998 740,909.5C 740.189,904.398 741.189,899.398 743,894.5C 744.062,879.519 744.729,864.519 745,849.5C 745.172,830.137 753.339,815.47 769.5,805.5 Z"/></g>
<g><path style="opacity:0.96" fill="#9900ff" d="M 212.5,811.5 C 230.417,809.63 245.083,815.463 256.5,829C 238.129,833.509 219.796,838.176 201.5,843C 178.136,847.556 160.136,839.889 147.5,820C 155.167,819.667 162.833,819.333 170.5,819C 184.629,816.405 198.629,813.905 212.5,811.5 Z"/></g>
<g><path style="opacity:0.961" fill="#9900ff" d="M 734.5,832.5 C 735.5,832.5 736.5,832.5 737.5,832.5C 736.191,849.137 735.358,865.804 735,882.5C 733.966,908.959 720.8,925.626 695.5,932.5C 695.167,932.333 694.833,932.167 694.5,932C 697.081,926.335 699.247,920.502 701,914.5C 703.245,900.871 705.245,887.205 707,873.5C 709.238,854.981 718.405,841.315 734.5,832.5 Z"/></g>
<g><path style="opacity:0.957" fill="#9900ff" d="M 256.5,838.5 C 270.472,837.706 282.138,842.373 291.5,852.5C 273.37,859.822 255.036,866.655 236.5,873C 214.451,878.82 196.785,872.653 183.5,854.5C 202.349,852.705 220.683,848.538 238.5,842C 244.581,840.503 250.581,839.336 256.5,838.5 Z"/></g>
<g><path style="opacity:0.96" fill="#9900ff" d="M 698.5,855.5 C 699.5,855.5 700.5,855.5 701.5,855.5C 698.413,873.105 695.58,890.771 693,908.5C 688.213,932.121 674.046,946.121 650.5,950.5C 649.833,950.167 649.167,949.833 648.5,949.5C 650.921,945.66 653.088,941.66 655,937.5C 659.802,921.292 664.135,904.959 668,888.5C 672.913,872.428 683.08,861.428 698.5,855.5 Z"/></g>
<g><path style="opacity:0.959" fill="#9900ff" d="M 297.5,861.5 C 309.898,860.689 320.898,864.189 330.5,872C 312.321,881.256 293.987,890.256 275.5,899C 259.669,904.452 244.669,902.785 230.5,894C 227.113,891.815 224.446,888.981 222.5,885.5C 241.338,881.831 259.338,875.665 276.5,867C 283.509,864.666 290.509,862.833 297.5,861.5 Z"/></g>
<g><path style="opacity:0.959" fill="#9900ff" d="M 659.5,874.5 C 660.978,874.238 662.311,874.571 663.5,875.5C 658.56,890.257 654.393,905.257 651,920.5C 647.317,936.394 638.817,948.894 625.5,958C 617.667,962.233 609.334,963.9 600.5,963C 603.333,958.833 606.167,954.667 609,950.5C 615.746,931.928 623.079,913.594 631,895.5C 637.775,884.706 647.275,877.706 659.5,874.5 Z"/></g>
<g><path style="opacity:0.962" fill="#9900ff" d="M 336.5,880.5 C 345,879.934 353.333,880.767 361.5,883C 364.503,884.166 367.17,885.833 369.5,888C 352.833,898.667 336.167,909.333 319.5,920C 298.934,929.558 280.267,926.891 263.5,912C 268.543,910.822 273.543,909.489 278.5,908C 292.149,901.51 305.482,894.51 318.5,887C 324.43,884.304 330.43,882.137 336.5,880.5 Z"/></g>
<g><path style="opacity:0.958" fill="#9900ff" d="M 616.5,889.5 C 618.857,889.337 621.19,889.503 623.5,890C 616.417,906.246 609.917,922.746 604,939.5C 595.476,960.087 580.143,971.087 558,972.5C 555.747,972.369 553.581,971.869 551.5,971C 556.274,965.949 560.44,960.449 564,954.5C 571.298,937.902 579.631,921.902 589,906.5C 596.292,897.613 605.458,891.947 616.5,889.5 Z"/></g>
<g><path style="opacity:0.96" fill="#9900ff" d="M 386.5,893.5 C 395.476,893.048 403.809,895.048 411.5,899.5C 395.357,911.809 379.357,924.309 363.5,937C 344.957,947.454 326.791,946.954 309,935.5C 308.409,934.517 308.743,933.85 310,933.5C 316.08,931.584 321.913,929.084 327.5,926C 341.631,915.877 356.298,906.544 371.5,898C 376.535,896.151 381.535,894.651 386.5,893.5 Z"/></g>
<g><path style="opacity:0.964" fill="#9900ff" d="M 568.5,900.5 C 572.884,900.174 577.217,900.508 581.5,901.5C 573.567,915.031 566.4,929.031 560,943.5C 553.5,956.667 543.667,966.5 530.5,973C 521.658,975.426 512.658,976.093 503.5,975C 502.549,974.282 502.383,973.449 503,972.5C 506.667,968.833 510.333,965.167 514,961.5C 523,947.5 532,933.5 541,919.5C 548.172,910.019 557.339,903.686 568.5,900.5 Z"/></g>
<g><path style="opacity:0.962" fill="#9900ff" d="M 430.5,902.5 C 437.878,902.045 445.045,903.045 452,905.5C 453.257,905.85 453.591,906.517 453,907.5C 441.554,917.613 430.721,928.446 420.5,940C 412.278,948.28 402.611,954.28 391.5,958C 378.268,961.286 365.935,959.286 354.5,952C 371.523,942.981 386.856,931.648 400.5,918C 409.328,910.42 419.328,905.254 430.5,902.5 Z"/></g>
<g><path style="opacity:0.959" fill="#9900ff" d="M 526.5,905.5 C 530.915,905.305 535.249,905.805 539.5,907C 529.607,921.23 520.107,935.73 511,950.5C 501.773,964.404 488.94,972.571 472.5,975C 465.613,975.519 458.946,974.519 452.5,972C 456.667,968.5 460.833,965 465,961.5C 474.242,950.014 483.242,938.347 492,926.5C 501.197,915.421 512.697,908.421 526.5,905.5 Z"/></g>
<g><path style="opacity:0.963" fill="#9900ff" d="M 478.5,906.5 C 484.695,906.107 490.695,906.941 496.5,909C 486.067,920.709 476.234,932.876 467,945.5C 457.789,957.392 445.955,965.226 431.5,969C 426.167,969.667 420.833,969.667 415.5,969C 411.118,968.409 407.118,966.909 403.5,964.5C 408.949,960.893 414.283,957.059 419.5,953C 430.137,941.363 441.137,930.029 452.5,919C 460.348,912.907 469.015,908.741 478.5,906.5 Z"/></g>
</svg>
