<?xml version="1.0" encoding="iso-8859-1"?>
<!-- Uploaded to: SVG Repo, www.svgrepo.com, Generator: SVG Repo Mixer Tools -->
<svg fill="#808080" height="16" width="16" version="1.1" id="Layer_1" xmlns="http://www.w3.org/2000/svg"
     viewBox="0 0 512 512" xml:space="preserve">
			<path d="M437.019,74.981C388.668,26.628,324.38,0,256,0S123.332,26.628,74.981,74.981C26.629,123.333,0,187.62,0,256
				c0,68.38,26.628,132.668,74.981,181.019C123.333,485.371,187.62,512,256,512c68.38,0,132.668-26.628,181.019-74.981
				C485.371,388.667,512,324.38,512,256S485.372,123.332,437.019,74.981z M256,491.102C126.365,491.102,20.898,385.635,20.898,256
				S126.365,20.898,256,20.898S491.102,126.365,491.102,256S385.635,491.102,256,491.102z"/>

			<path d="M237.192,309.541l-73.965-73.965c-4.08-4.08-10.697-4.08-14.778,0l-29.554,29.554c-4.08,4.08-4.08,10.697,0,14.778
				l96.131,96.131c5.92,5.92,13.793,9.182,22.165,9.182c8.373,0,16.245-3.261,22.165-9.182l185.295-185.295
				c1.959-1.959,3.06-4.617,3.06-7.388s-1.101-5.429-3.06-7.388l-29.554-29.554c-4.08-4.08-10.698-4.08-14.777,0L237.192,309.541z
				 M407.71,168.577l14.777,14.777L244.58,361.26c-1.974,1.974-4.598,3.06-7.388,3.06c-2.791,0-5.415-1.087-7.388-3.06
				l-88.742-88.741l14.777-14.777l73.965,73.965c4.08,4.08,10.697,4.08,14.778,0L407.71,168.577z"/>
</svg>