<?xml version="1.0" ?><!DOCTYPE svg  PUBLIC '-//W3C//DTD SVG 1.1//EN'  'http://www.w3.org/Graphics/SVG/1.1/DTD/svg11.dtd'><svg enable-background="new 0 0 128 128" id="Слой_1" version="1.1" viewBox="0 0 128 128" xml:space="preserve" xmlns="http://www.w3.org/2000/svg" xmlns:xlink="http://www.w3.org/1999/xlink"><g><path d="M64,1C29.8,1,2,28.8,2,63v0.3l3.4,11.3C3.3,76.8,2,79.7,2,83v30c0,6.6,5.4,12,12,12h14.8V71H14   c-1.8,0-3.6,0.4-5.1,1.2L6,62.7c0-7.3,1.4-14.2,3.9-20.6c1.8,1.1,4.6,2.4,7.3,2.4c0.5,0,1,0,1.5-0.1c2.2-0.4,3.9-1.7,5.1-3.8   C32.1,26,47.4,17,64,17c16.4,0,31.7,8.9,39.9,23.2c1.2,2.1,3,3.5,5.2,3.9c3.3,0.7,6.7-0.8,8.9-2.1c2.5,6.4,3.9,13.4,3.9,20.7   l-3.1,9.4c-1.5-0.7-3.2-1.1-4.9-1.1H99.2v54H114c6.6,0,12-5.4,12-12V83c0-3.4-1.4-6.4-3.6-8.6l3.6-11.1V63C126,28.8,98.2,1,64,1z    M14,75h10.8v46H14c-4.4,0-8-3.6-8-8V83c0-1.3,0.3-2.5,0.9-3.6l5.8,19.2l3.8-1.2L10,76.1C11.2,75.4,12.6,75,14,75z M122,83v30   c0,4.4-3.6,8-8,8h-10.8V75H114c1.3,0,2.6,0.3,3.7,0.9l-7,21.5l3.8,1.2l6.4-19.6C121.6,80.2,122,81.5,122,83z M109.9,40.2   c-1.1-0.2-1.9-0.9-2.5-2C98.5,22.6,81.8,13,64,13c-18,0-34.7,9.8-43.6,25.5c-0.6,1.1-1.4,1.7-2.4,1.9c-2.1,0.4-4.8-1-6.5-2.1   C20.8,18.7,40.8,5,64,5c23.1,0,43.2,13.6,52.5,33.3C114.7,39.3,112,40.6,109.9,40.2z" fill="#3EBBC4"/></g></svg>